<?xml version="1.0" encoding="UTF-8" standalone="no"?>
<svg width="19px" height="20px" viewBox="0 0 19 20" version="1.1" xmlns="http://www.w3.org/2000/svg" xmlns:xlink="http://www.w3.org/1999/xlink" xmlns:sketch="http://www.bohemiancoding.com/sketch/ns">
    <!-- Generator: Sketch 3.2.2 (9983) - http://www.bohemiancoding.com/sketch -->
    <title>Imported Layers</title>
    <desc>Created with Sketch.</desc>
    <defs></defs>
    <g id="Desktop" stroke="none" stroke-width="1" fill="none" fill-rule="evenodd" sketch:type="MSPage">
        <g id="1---Login" sketch:type="MSArtboardGroup" transform="translate(-426.000000, -578.000000)" fill="#FFFFFF">
            <g id="Card" sketch:type="MSLayerGroup" transform="translate(265.000000, 160.000000)">
                <g id="Google+-+-Facebook-+-SUGGESTED-LOG-IN" transform="translate(147.000000, 297.000000)" sketch:type="MSShapeGroup">
                    <g id="Google+" transform="translate(0.000000, 108.000000)">
                        <g id="Imported-Layers" transform="translate(14.000000, 13.000000)">
                            <path d="M11.7135,12.3258065 C11.3307857,11.8374194 10.8659643,11.4174194 10.3719643,11.0322581 C9.89696429,10.6612903 9.29914286,10.3077419 8.97342857,9.79677419 C8.22021429,8.61483871 9.84335714,7.70516129 10.5456786,6.95806452 C12.1423571,5.26193548 11.7209643,2.14645161 9.68864286,0.921290323 C10.1928214,0.921290323 10.8856429,1.04580645 11.3633571,0.909032258 C11.9163929,0.750322581 12.4911429,0.281290323 12.9926071,0.00258064516 C11.2547857,0.00258064516 9.51696429,-0.00322580645 7.77914286,0.00258064516 C6.15532143,0.00774193548 4.47382143,0.227096774 3.18317857,1.23806452 C1.71475,2.3883871 0.929642857,4.27612903 1.53085714,6.04580645 C2.23046429,8.10451613 4.50571429,8.98451613 6.61946429,8.73806452 C6.50139286,9.16193548 6.30664286,9.49741935 6.36567857,9.9516129 C6.43896429,10.5148387 6.77485714,11.0309677 7.13246429,11.4716129 C5.20260714,11.5187097 2.90225,11.8387097 1.37885714,13.0593548 C-0.06175,14.2135484 -0.496714286,16.3077419 0.786464286,17.716129 C2.11307143,19.1716129 4.57492857,19.4580645 6.46882143,19.3283871 C8.15167857,19.2129032 9.82028571,18.7109677 11.039,17.5593548 C12.4762143,16.2019355 12.996,13.9619355 11.7135,12.3258065 C11.4977143,12.0503226 11.9292857,12.6012903 11.7135,12.3258065 L11.7135,12.3258065 Z M6.99878571,8.09806452 C3.50821429,8.09806452 1.95021429,0.821290323 5.98296429,0.84 C7.95692857,0.849677419 8.84857143,2.92645161 9.14646429,4.48580645 C9.45114286,6.08387097 9.09082143,8.09806452 6.99878571,8.09806452 L6.99878571,8.09806452 Z M10.3794286,16.8354839 C9.234,18.6987097 6.02367857,18.5206452 4.24242857,17.7735484 C2.39332143,16.9980645 1.45553571,14.7148387 3.15942857,13.2819355 C3.90246429,12.656129 4.99835714,12.3793548 5.95785714,12.2522581 C6.48782143,12.1819355 7.07478571,12.12 7.6095,12.1767742 C7.99560714,12.2174194 8.22903571,12.4264516 8.55271429,12.6445161 C9.95464286,13.5890323 11.4502143,15.0922581 10.3794286,16.8354839 C10.1555,17.1993548 10.6047143,16.4683871 10.3794286,16.8354839 L10.3794286,16.8354839 Z" id="Fill-1"></path>
                            <path d="M19,2.58064516 L16.2857143,2.58064516 L16.2857143,0 L14.9285714,0 L14.9285714,2.58064516 L12.2142857,2.58064516 L12.2142857,3.87096774 L14.9285714,3.87096774 L14.9285714,6.4516129 L16.2857143,6.4516129 L16.2857143,3.87096774 L19,3.87096774 L19,2.58064516" id="Fill-2"></path>
                        </g>
                    </g>
                </g>
            </g>
        </g>
    </g>
</svg>