<?xml version="1.0" encoding="UTF-8" standalone="no"?>
<svg width="147px" viewBox="0 0 1173 274" version="1.1" xmlns="http://www.w3.org/2000/svg" xmlns:xlink="http://www.w3.org/1999/xlink" xmlns:sketch="http://www.bohemiancoding.com/sketch/ns">
    <!-- Generator: Sketch 3.2.2 (9983) - http://www.bohemiancoding.com/sketch -->
    <title>Outer + Sharelock</title>
    <desc>Created with Sketch.</desc>
    <defs></defs>
    <g id="Android" stroke="none" stroke-width="1" fill="none" fill-rule="evenodd" sketch:type="MSPage">
        <g id="Logo-white" sketch:type="MSArtboardGroup" transform="translate(-118.000000, -119.000000)" fill="#FFFFFF">
            <g id="Outer-+-Sharelock" sketch:type="MSLayerGroup" transform="translate(118.000000, 119.000000)">
                <g id="Outer" sketch:type="MSShapeGroup">
                    <g id="Inner">
                        <g id="Oval-1-+-Oval-2-+-Line" transform="translate(0.674539, 0.388439)">
                            <path d="M273.812254,136.754798 C273.812254,61.3099825 212.578992,0.149875236 137.043935,0.149875236 C61.5088784,0.149875236 0.275616239,61.3099825 0.275616239,136.754798 C0.275616239,212.199614 61.5088784,273.359721 137.043935,273.359721 C212.578992,273.359721 273.812254,212.199614 273.812254,136.754798 Z M25.1425833,136.754798 C25.1425833,75.0272217 75.2425251,24.987134 137.043935,24.987134 C198.845345,24.987134 248.945287,75.0272217 248.945287,136.754798 C248.945287,198.482375 198.845345,248.522462 137.043935,248.522462 C75.2425251,248.522462 25.1425833,198.482375 25.1425833,136.754798 Z" id="Oval-1"></path>
                            <path d="M190.922364,136.754798 C190.922364,107.034113 166.80017,82.9407376 137.043935,82.9407376 C107.287701,82.9407376 83.1655065,107.034113 83.1655065,136.754798 C83.1655065,166.475483 107.287701,190.568859 137.043935,190.568859 C166.80017,190.568859 190.922364,166.475483 190.922364,136.754798 Z M108.032474,136.754798 C108.032474,120.751352 121.021347,107.777996 137.043935,107.777996 C153.066523,107.777996 166.055397,120.751352 166.055397,136.754798 C166.055397,152.758244 153.066523,165.7316 137.043935,165.7316 C121.021347,165.7316 108.032474,152.758244 108.032474,136.754798 Z" id="Oval-2"></path>
                            <path d="M301.95022,149.173428 C308.383303,149.173428 313.598347,143.613418 313.598347,136.754798 C313.598347,129.896179 308.383303,124.336169 301.95022,124.336169 L177.703525,124.336169 C171.270441,124.336169 166.055397,129.896179 166.055397,136.754798 C166.055397,143.613418 171.270441,149.173428 177.703525,149.173428 L301.95022,149.173428 Z" id="Line"></path>
                        </g>
                    </g>
                </g>
                <path d="M475.67,152.57 C475.67,132.24 465.79,122.93 438.81,111.91 C420.57,104.31 416.39,100.32 416.39,91.96 C416.39,83.98 421.9,77.9 434.44,77.9 C444.7,77.9 455.91,81.89 465.41,88.16 L469.21,65.36 C459.71,60.42 449.45,57.38 434.63,57.38 C410.12,57.38 392.26,70.87 392.26,94.05 C392.26,114.38 402.52,122.74 427.98,133.19 C446.98,141.36 451.54,145.35 451.54,155.04 C451.54,165.49 443.56,171 431.97,171 C418.86,171 405.18,165.87 394.16,159.41 L390.36,182.4 C401.95,187.91 415.63,191.52 431.59,191.52 C456.86,191.52 475.67,178.22 475.67,152.57 L475.67,152.57 Z M573.14,190 L573.14,123.88 C573.14,106.78 564.02,96.33 546.92,96.33 C534.76,96.33 525.26,102.79 517.66,109.82 L517.66,52.82 L494.86,56.43 L494.86,190 L517.66,190 L517.66,128.06 C524.31,121.03 531.34,116.47 538.56,116.47 C546.92,116.47 550.34,121.98 550.34,129.96 L550.34,190 L573.14,190 Z M668.9,190 L668.9,127.11 C668.9,105.07 657.12,96.33 633.37,96.33 C618.74,96.33 607.53,99.56 596.89,103.74 L599.74,121.98 C609.62,117.61 619.69,114.57 630.33,114.57 C640.4,114.57 646.1,118.37 646.1,128.25 L646.1,130.91 C609.05,134.52 590.81,144.21 590.81,166.44 C590.81,182.4 601.26,191.9 616.84,191.9 C630.52,191.9 640.02,185.82 647.43,178.03 L649.33,190 L668.9,190 Z M646.1,164.73 C639.83,171 632.42,174.61 624.63,174.61 C617.6,174.61 613.42,170.62 613.42,163.97 C613.42,155.23 619.69,147.44 646.1,144.21 L646.1,164.73 Z M746.8,118.94 L743.19,96.33 C728.94,97.09 719.82,106.02 713.74,116.66 L710.89,98.23 L691.51,98.23 L691.51,190 L714.31,190 L714.31,137.37 C720.77,127.49 732.55,119.89 746.8,118.94 L746.8,118.94 Z M838.19,143.07 C838.19,117.04 825.84,96.33 798.29,96.33 C774.35,96.33 756.49,114.38 756.49,144.21 C756.49,177.27 775.68,191.9 801.33,191.9 C816.15,191.9 828.12,187.53 838,180.69 L835.34,162.83 C825.27,169.86 815.58,174.23 803.8,174.23 C789.74,174.23 780.24,166.44 779.1,148.58 L838,148.58 C838,147.25 838.19,144.97 838.19,143.07 L838.19,143.07 Z M815.96,134.33 L779.48,134.33 C781.19,119.32 788.6,112.1 797.72,112.1 C808.74,112.1 814.44,120.08 815.96,134.33 L815.96,134.33 Z M880.37,190 L880.37,52.82 L857.57,56.43 L857.57,190 L880.37,190 Z M986.2,144.21 C986.2,114.38 967.96,96.33 942.88,96.33 C917.99,96.33 899.75,114.38 899.75,144.21 C899.75,174.04 917.8,191.9 942.69,191.9 C967.77,191.9 986.2,174.04 986.2,144.21 L986.2,144.21 Z M963.97,144.21 C963.97,161.31 956.75,173.28 942.69,173.28 C929.39,173.28 921.98,160.93 921.98,144.21 C921.98,127.11 929.2,115.14 942.69,115.14 C956.37,115.14 963.97,127.3 963.97,144.21 L963.97,144.21 Z M1073.79,182.78 L1070.75,163.4 C1062.2,170.05 1054.98,172.14 1047,172.14 C1033.13,172.14 1022.87,163.02 1022.87,144.02 C1022.87,125.78 1032.37,116.09 1045.48,116.09 C1054.41,116.09 1061.82,118.75 1069.61,124.64 L1072.84,104.12 C1065.62,99.56 1056.5,96.33 1044.15,96.33 C1019.83,96.33 999.88,112.67 999.88,144.59 C999.88,174.61 1017.93,191.71 1043.39,191.71 C1054.98,191.71 1064.48,189.24 1073.79,182.78 L1073.79,182.78 Z M1172.59,187.91 L1136.68,139.27 L1170.5,98.23 L1144.85,98.23 L1114.83,136.23 L1114.83,52.82 L1092.03,56.43 L1092.03,190 L1114.83,190 L1114.83,144.59 L1148.46,191.33 L1172.59,187.91 Z" id="Sharelock" sketch:type="MSShapeGroup"></path>
            </g>
        </g>
    </g>
</svg>