<?xml version="1.0" encoding="UTF-8" standalone="no"?>
<svg width="153px" height="51px" viewBox="0 0 153 51" version="1.1" xmlns="http://www.w3.org/2000/svg" xmlns:xlink="http://www.w3.org/1999/xlink" xmlns:sketch="http://www.bohemiancoding.com/sketch/ns">
    <!-- Generator: Sketch 3.2.2 (9983) - http://www.bohemiancoding.com/sketch -->
    <title>Apple App Store - Small</title>
    <desc>Created with Sketch.</desc>
    <defs></defs>
    <g id="Landing" stroke="none" stroke-width="1" fill="none" fill-rule="evenodd" sketch:type="MSPage">
        <g id="Landing-Home-2" sketch:type="MSArtboardGroup" transform="translate(-923.000000, -717.000000)">
            <g id="Apple-App-Store---Small-+-Google-Play---Small" sketch:type="MSLayerGroup" transform="translate(924.000000, 718.000000)">
                <g id="Apple-App-Store---Small" sketch:type="MSShapeGroup">
                    <rect id="container" stroke="#5C666F" fill="#5C666F" x="0" y="0" width="150.361446" height="48.0769231" rx="2"></rect>
                    <path d="M14.0520107,7.69230769 C12.6791713,7.69230769 11.5662651,8.94473753 11.5662651,10.4957085 L11.5662651,39.5042915 C11.5662651,41.052567 12.6779403,42.3076923 14.0520107,42.3076923 L26.429917,42.3076923 C27.8027564,42.3076923 28.9156627,41.0552625 28.9156627,39.5042915 L28.9156627,10.4957085 C28.9156627,8.94743299 27.8039875,7.69230769 26.429917,7.69230769 L14.0520107,7.69230769 L14.0520107,7.69230769 Z M13.1927711,12.2320303 L13.1927711,37.7679697 L27.2891566,37.7679697 L27.2891566,12.2320303 L13.1927711,12.2320303 L13.1927711,12.2320303 Z M20.2409639,41.1727617 C20.8398268,41.1727617 21.3253012,40.6646359 21.3253012,40.037831 C21.3253012,39.4110261 20.8398268,38.9029004 20.2409639,38.9029004 C19.6421009,38.9029004 19.1566265,39.4110261 19.1566265,40.037831 C19.1566265,40.6646359 19.6421009,41.1727617 20.2409639,41.1727617 L20.2409639,41.1727617 Z M18.0722892,9.96216898 C18.0722892,10.2755714 18.2586596,10.5296343 18.5040279,10.5296343 L21.9778999,10.5296343 C22.2163426,10.5296343 22.4096386,10.2664058 22.4096386,9.96216898 C22.4096386,9.64876654 22.2232681,9.39470366 21.9778999,9.39470366 L18.5040279,9.39470366 C18.2655852,9.39470366 18.0722892,9.6579322 18.0722892,9.96216898 Z" id="iPhone" fill="#FFFFFF"></path>
                    <path d="M42.191506,14.9098077 L43.136506,17.6923077 L44.357131,17.6923077 L41.338381,8.84605769 L39.960256,8.84605769 L36.954631,17.6923077 L38.135881,17.6923077 L39.054631,14.9098077 L42.191506,14.9098077 Z M39.290881,14.0173077 L40.157131,11.4579327 C40.327756,10.9198077 40.472131,10.3816827 40.603381,9.85668269 L40.629631,9.85668269 C40.760881,10.3685577 40.892131,10.8935577 41.089006,11.4710577 L41.955256,14.0173077 L39.290881,14.0173077 Z M44.614006,11.3398077 L47.029006,17.6923077 L48.131506,17.6923077 L50.625256,11.3398077 L49.417756,11.3398077 L48.184006,14.9098077 C47.974006,15.4873077 47.790256,16.0123077 47.645881,16.5373077 L47.606506,16.5373077 C47.475256,16.0123077 47.304631,15.4873077 47.094631,14.9098077 L45.847756,11.3398077 L44.614006,11.3398077 Z M56.289631,17.6923077 C56.210881,17.2591827 56.184631,16.7210577 56.184631,16.1698077 L56.184631,13.7941827 C56.184631,12.5210577 55.712131,11.1954327 53.769631,11.1954327 C52.969006,11.1954327 52.207756,11.4185577 51.682756,11.7598077 L51.945256,12.5210577 C52.391506,12.2323077 53.008381,12.0485577 53.599006,12.0485577 C54.898381,12.0485577 55.042756,12.9935577 55.042756,13.5185577 L55.042756,13.6498077 C52.588381,13.6366827 51.223381,14.4766827 51.223381,16.0123077 C51.223381,16.9310577 51.879631,17.8366827 53.165881,17.8366827 C54.071506,17.8366827 54.754006,17.3904327 55.108381,16.8916827 L55.147756,16.8916827 L55.239631,17.6923077 L56.289631,17.6923077 Z M55.069006,15.5529327 C55.069006,15.6710577 55.042756,15.8023077 55.003381,15.9204327 C54.819631,16.4585577 54.294631,16.9835577 53.467756,16.9835577 C52.877131,16.9835577 52.378381,16.6291827 52.378381,15.8810577 C52.378381,14.6473077 53.809006,14.4241827 55.069006,14.4504327 L55.069006,15.5529327 Z M59.263381,17.6923077 L59.263381,11.3398077 L58.108381,11.3398077 L58.108381,17.6923077 L59.263381,17.6923077 Z M58.685881,8.83293269 C58.265881,8.83293269 57.964006,9.14793269 57.964006,9.55480769 C57.964006,9.94855769 58.252756,10.2635577 58.659631,10.2635577 C59.119006,10.2635577 59.407756,9.94855769 59.394631,9.55480769 C59.394631,9.14793269 59.119006,8.83293269 58.685881,8.83293269 L58.685881,8.83293269 Z M61.239631,17.6923077 L62.394631,17.6923077 L62.394631,8.37355769 L61.239631,8.37355769 L61.239631,17.6923077 Z M68.964631,17.6923077 C68.885881,17.2591827 68.859631,16.7210577 68.859631,16.1698077 L68.859631,13.7941827 C68.859631,12.5210577 68.387131,11.1954327 66.444631,11.1954327 C65.644006,11.1954327 64.882756,11.4185577 64.357756,11.7598077 L64.620256,12.5210577 C65.066506,12.2323077 65.683381,12.0485577 66.274006,12.0485577 C67.573381,12.0485577 67.717756,12.9935577 67.717756,13.5185577 L67.717756,13.6498077 C65.263381,13.6366827 63.898381,14.4766827 63.898381,16.0123077 C63.898381,16.9310577 64.554631,17.8366827 65.840881,17.8366827 C66.746506,17.8366827 67.429006,17.3904327 67.783381,16.8916827 L67.822756,16.8916827 L67.914631,17.6923077 L68.964631,17.6923077 Z M67.744006,15.5529327 C67.744006,15.6710577 67.717756,15.8023077 67.678381,15.9204327 C67.494631,16.4585577 66.969631,16.9835577 66.142756,16.9835577 C65.552131,16.9835577 65.053381,16.6291827 65.053381,15.8810577 C65.053381,14.6473077 66.484006,14.4241827 67.744006,14.4504327 L67.744006,15.5529327 Z M71.728381,17.6923077 L71.780881,16.6423077 L71.820256,16.6423077 C72.292756,17.4823077 73.027756,17.8366827 73.946506,17.8366827 C75.364006,17.8366827 76.794631,16.7079327 76.794631,14.4373077 C76.807756,12.5079327 75.692131,11.1954327 74.117131,11.1954327 C73.093381,11.1954327 72.358381,11.6548077 71.951506,12.3635577 L71.925256,12.3635577 L71.925256,8.37355769 L70.783381,8.37355769 L70.783381,16.0516827 C70.783381,16.6160577 70.757131,17.2591827 70.730881,17.6923077 L71.728381,17.6923077 Z M71.925256,14.0041827 C71.925256,13.8204327 71.964631,13.6629327 71.990881,13.5316827 C72.227131,12.6523077 72.962131,12.1141827 73.749631,12.1141827 C74.983381,12.1141827 75.639631,13.2035577 75.639631,14.4766827 C75.639631,15.9335577 74.917756,16.9179327 73.710256,16.9179327 C72.870256,16.9179327 72.200881,16.3666827 71.977756,15.5660577 C71.951506,15.4348077 71.925256,15.2904327 71.925256,15.1460577 L71.925256,14.0041827 Z M78.311506,17.6923077 L79.466506,17.6923077 L79.466506,8.37355769 L78.311506,8.37355769 L78.311506,17.6923077 Z M86.574631,14.7260577 C86.587756,14.6079327 86.614006,14.4241827 86.614006,14.1879327 C86.614006,13.0198077 86.062756,11.1954327 83.989006,11.1954327 C82.138381,11.1954327 81.009631,12.7048077 81.009631,14.6210577 C81.009631,16.5373077 82.177756,17.8235577 84.133381,17.8235577 C85.144006,17.8235577 85.839631,17.6135577 86.246506,17.4298077 L86.049631,16.6029327 C85.616506,16.7866827 85.117756,16.9310577 84.290881,16.9310577 C83.135881,16.9310577 82.138381,16.2879327 82.112131,14.7260577 L86.574631,14.7260577 Z M82.125256,13.8991827 C82.217131,13.0985577 82.729006,12.0223077 83.897131,12.0223077 C85.196506,12.0223077 85.511506,13.1641827 85.498381,13.8991827 L82.125256,13.8991827 Z M93.637756,11.1954327 C91.879006,11.1954327 90.487756,12.4423077 90.487756,14.5685577 C90.487756,16.5766827 91.813381,17.8366827 93.532756,17.8366827 C95.068381,17.8366827 96.695881,16.8129327 96.695881,14.4635577 C96.695881,12.5210577 95.462131,11.1954327 93.637756,11.1954327 L93.637756,11.1954327 Z M93.611506,12.0616827 C94.976506,12.0616827 95.514631,13.4266827 95.514631,14.5029327 C95.514631,15.9335577 94.687756,16.9704327 93.585256,16.9704327 C92.456506,16.9704327 91.655881,15.9204327 91.655881,14.5291827 C91.655881,13.3216827 92.246506,12.0616827 93.611506,12.0616827 L93.611506,12.0616827 Z M98.212756,17.6923077 L99.367756,17.6923077 L99.367756,13.8729327 C99.367756,13.6760577 99.394006,13.4791827 99.446506,13.3348077 C99.643381,12.6916827 100.234006,12.1535577 100.995256,12.1535577 C102.084631,12.1535577 102.465256,13.0066827 102.465256,14.0304327 L102.465256,17.6923077 L103.620256,17.6923077 L103.620256,13.8991827 C103.620256,11.7204327 102.255256,11.1954327 101.375881,11.1954327 C100.325881,11.1954327 99.590881,11.7860577 99.275881,12.3898077 L99.249631,12.3898077 L99.184006,11.3398077 L98.160256,11.3398077 C98.199631,11.8648077 98.212756,12.4029327 98.212756,13.0591827 L98.212756,17.6923077 Z M108.662131,9.81730769 L108.662131,11.3398077 L107.677756,11.3398077 L107.677756,12.2191827 L108.662131,12.2191827 L108.662131,15.6841827 C108.662131,16.4323077 108.780256,16.9966827 109.108381,17.3379327 C109.384006,17.6529327 109.817131,17.8235577 110.355256,17.8235577 C110.801506,17.8235577 111.155881,17.7579327 111.379006,17.6660577 L111.326506,16.7998077 C111.182131,16.8391827 110.959006,16.8785577 110.657131,16.8785577 C110.014006,16.8785577 109.790881,16.4323077 109.790881,15.6448077 L109.790881,12.2191827 L111.444631,12.2191827 L111.444631,11.3398077 L109.790881,11.3398077 L109.790881,9.51543269 L108.662131,9.81730769 Z M112.804006,17.6923077 L113.959006,17.6923077 L113.959006,13.8598077 C113.959006,13.6366827 113.972131,13.4660577 114.037756,13.3085577 C114.247756,12.6785577 114.838381,12.1535577 115.586506,12.1535577 C116.675881,12.1535577 117.056506,13.0198077 117.056506,14.0435577 L117.056506,17.6923077 L118.211506,17.6923077 L118.211506,13.9123077 C118.211506,11.7204327 116.846506,11.1954327 115.993381,11.1954327 C115.560256,11.1954327 115.153381,11.3266827 114.812131,11.5235577 C114.457756,11.7204327 114.169006,12.0091827 113.985256,12.3373077 L113.959006,12.3373077 L113.959006,8.37355769 L112.804006,8.37355769 L112.804006,17.6923077 Z M125.254006,14.7260577 C125.267131,14.6079327 125.293381,14.4241827 125.293381,14.1879327 C125.293381,13.0198077 124.742131,11.1954327 122.668381,11.1954327 C120.817756,11.1954327 119.689006,12.7048077 119.689006,14.6210577 C119.689006,16.5373077 120.857131,17.8235577 122.812756,17.8235577 C123.823381,17.8235577 124.519006,17.6135577 124.925881,17.4298077 L124.729006,16.6029327 C124.295881,16.7866827 123.797131,16.9310577 122.970256,16.9310577 C121.815256,16.9310577 120.817756,16.2879327 120.791506,14.7260577 L125.254006,14.7260577 Z M120.804631,13.8991827 C120.896506,13.0985577 121.408381,12.0223077 122.576506,12.0223077 C123.875881,12.0223077 124.190881,13.1641827 124.177756,13.8991827 L120.804631,13.8991827 Z" id="Available-on-the" fill="#FFFFFF"></path>
                    <path d="M46.8025062,32.1427692 L48.5305062,37.2307692 L50.7625062,37.2307692 L45.2425062,21.054769 L42.7225061,21.054769 L37.226506,37.2307692 L39.3865061,37.2307692 L41.0665061,32.1427692 L46.8025062,32.1427692 Z M41.4985061,30.5107691 L43.0825061,25.8307691 C43.3945061,24.846769 43.6585061,23.862769 43.8985061,22.902769 L43.9465061,22.902769 C44.1865061,23.838769 44.4265061,24.798769 44.7865061,25.8547691 L46.3705062,30.5107691 L41.4985061,30.5107691 Z M52.5445063,41.9827693 L54.6325063,41.9827693 L54.6325063,35.6707692 L54.6805063,35.6707692 C55.3765063,36.8227692 56.7205063,37.4947692 58.2565063,37.4947692 C60.9925064,37.4947692 63.5365064,35.4307692 63.5365064,31.2547691 C63.5365064,27.7267691 61.4245064,25.3507691 58.6165063,25.3507691 C56.7205063,25.3507691 55.3525063,26.1907691 54.4885063,27.6067691 L54.4405063,27.6067691 L54.3445063,25.6147691 L52.4485062,25.6147691 C52.4965062,26.7187691 52.5445063,27.9187691 52.5445063,29.4067691 L52.5445063,41.9827693 Z M54.6325063,30.5107691 C54.6325063,30.2227691 54.7045063,29.9107691 54.7765063,29.6467691 C55.1845063,28.0627691 56.5285063,27.0307691 57.9685063,27.0307691 C60.2005064,27.0307691 61.4245064,29.0227691 61.4245064,31.3507691 C61.4245064,34.0147692 60.1285064,35.8387692 57.8965063,35.8387692 C56.3845063,35.8387692 55.1125063,34.8307692 54.7285063,33.3667692 C54.6805063,33.1027692 54.6325063,32.8147692 54.6325063,32.5027692 L54.6325063,30.5107691 Z M65.7505064,41.9827693 L67.8385065,41.9827693 L67.8385065,35.6707692 L67.8865065,35.6707692 C68.5825065,36.8227692 69.9265065,37.4947692 71.4625065,37.4947692 C74.1985066,37.4947692 76.7425066,35.4307692 76.7425066,31.2547691 C76.7425066,27.7267691 74.6305066,25.3507691 71.8225065,25.3507691 C69.9265065,25.3507691 68.5585065,26.1907691 67.6945065,27.6067691 L67.6465065,27.6067691 L67.5505065,25.6147691 L65.6545064,25.6147691 C65.7025064,26.7187691 65.7505064,27.9187691 65.7505064,29.4067691 L65.7505064,41.9827693 Z M67.8385065,30.5107691 C67.8385065,30.2227691 67.9105065,29.9107691 67.9825065,29.6467691 C68.3905065,28.0627691 69.7345065,27.0307691 71.1745065,27.0307691 C73.4065065,27.0307691 74.6305066,29.0227691 74.6305066,31.3507691 C74.6305066,34.0147692 73.3345065,35.8387692 71.1025065,35.8387692 C69.5905065,35.8387692 68.3185065,34.8307692 67.9345065,33.3667692 C67.8865065,33.1027692 67.8385065,32.8147692 67.8385065,32.5027692 L67.8385065,30.5107691 Z M82.8505067,36.4387692 C83.7145067,37.0147692 85.4185067,37.4707692 86.9785067,37.4707692 C90.7945068,37.4707692 92.6425068,35.3107692 92.6425068,32.8147692 C92.6425068,30.4387691 91.2505068,29.1187691 88.5145068,28.0627691 C86.2825067,27.1987691 85.2985067,26.4547691 85.2985067,24.942769 C85.2985067,23.838769 86.1385067,22.518769 88.3465068,22.518769 C89.8105068,22.518769 90.8905068,22.998769 91.4185068,23.286769 L91.9945068,21.582769 C91.2745068,21.174769 90.0745068,20.790769 88.4185068,20.790769 C85.2745067,20.790769 83.1865067,22.662769 83.1865067,25.1827691 C83.1865067,27.4627691 84.8185067,28.8307691 87.4585067,29.7667691 C89.6425068,30.6067691 90.5065068,31.4707691 90.5065068,32.9827692 C90.5065068,34.6147692 89.2585068,35.7427692 87.1225067,35.7427692 C85.6825067,35.7427692 84.3145067,35.2627692 83.3785067,34.6867692 L82.8505067,36.4387692 Z M95.3845068,22.830769 L95.3845068,25.6147691 L93.5845068,25.6147691 L93.5845068,27.2227691 L95.3845068,27.2227691 L95.3845068,33.5587692 C95.3845068,34.9267692 95.6005068,35.9587692 96.2005069,36.5827692 C96.7045069,37.1587692 97.4965069,37.4707692 98.4805069,37.4707692 C99.2965069,37.4707692 99.9445069,37.3507692 100.352507,37.1827692 L100.256507,35.5987692 C99.9925069,35.6707692 99.5845069,35.7427692 99.0325069,35.7427692 C97.8565069,35.7427692 97.4485069,34.9267692 97.4485069,33.4867692 L97.4485069,27.2227691 L100.472507,27.2227691 L100.472507,25.6147691 L97.4485069,25.6147691 L97.4485069,22.278769 L95.3845068,22.830769 Z M107.174507,25.3507691 C103.958507,25.3507691 101.414507,27.6307691 101.414507,31.5187691 C101.414507,35.1907692 103.838507,37.4947692 106.982507,37.4947692 C109.790507,37.4947692 112.766507,35.6227692 112.766507,31.3267691 C112.766507,27.7747691 110.510507,25.3507691 107.174507,25.3507691 L107.174507,25.3507691 Z M107.126507,26.9347691 C109.622507,26.9347691 110.606507,29.4307691 110.606507,31.3987691 C110.606507,34.0147692 109.094507,35.9107692 107.078507,35.9107692 C105.014507,35.9107692 103.550507,33.9907692 103.550507,31.4467691 C103.550507,29.2387691 104.630507,26.9347691 107.126507,26.9347691 L107.126507,26.9347691 Z M114.980507,37.2307692 L117.068507,37.2307692 L117.068507,31.0387691 C117.068507,30.6787691 117.116507,30.3427691 117.164507,30.0547691 C117.452507,28.4707691 118.508507,27.3427691 119.996507,27.3427691 C120.284507,27.3427691 120.500507,27.3667691 120.716507,27.4147691 L120.716507,25.4227691 C120.524507,25.3747691 120.356507,25.3507691 120.116507,25.3507691 C118.700507,25.3507691 117.428507,26.3347691 116.900507,27.8947691 L116.804507,27.8947691 L116.732507,25.6147691 L114.884507,25.6147691 C114.956507,26.6947691 114.980507,27.8707691 114.980507,29.2387691 L114.980507,37.2307692 Z M131.474507,31.8067691 C131.498507,31.5907691 131.546507,31.2547691 131.546507,30.8227691 C131.546507,28.6867691 130.538507,25.3507691 126.746507,25.3507691 C123.362507,25.3507691 121.298507,28.1107691 121.298507,31.6147691 C121.298507,35.1187692 123.434507,37.4707692 127.010507,37.4707692 C128.858507,37.4707692 130.130507,37.0867692 130.874507,36.7507692 L130.514507,35.2387692 C129.722507,35.5747692 128.810507,35.8387692 127.298507,35.8387692 C125.186507,35.8387692 123.362507,34.6627692 123.314507,31.8067691 L131.474507,31.8067691 Z M123.338507,30.2947691 C123.506507,28.8307691 124.442507,26.8627691 126.578507,26.8627691 C128.954507,26.8627691 129.530507,28.9507691 129.506507,30.2947691 L123.338507,30.2947691 Z" id="App-Store" fill="#FFFFFF"></path>
                </g>
            </g>
        </g>
    </g>
</svg>