<?xml version="1.0" encoding="UTF-8" standalone="no"?>
<svg width="88px" height="88px" viewBox="0 0 88 88" version="1.1" xmlns="http://www.w3.org/2000/svg" xmlns:xlink="http://www.w3.org/1999/xlink" xmlns:sketch="http://www.bohemiancoding.com/sketch/ns">
    <!-- Generator: Sketch 3.2.2 (9983) - http://www.bohemiancoding.com/sketch -->
    <title>icon-web</title>
    <desc>Created with Sketch.</desc>
    <defs></defs>
    <g id="Page-1" stroke="none" stroke-width="1" fill="none" fill-rule="evenodd" sketch:type="MSPage">
        <g id="icon-web" sketch:type="MSLayerGroup" fill="#A9B2BB">
            <path d="M14.8,76.8 C14.8,76.9 14.8,76.9 14.8,76.8 C14.9,76.9 15,77 15.1,77.1 C22.8,83.9 32.9,88 44,88 C55.1,88 65.2,83.9 72.9,77.1 L73.2,76.8 L73.2,76.8 C82.3,68.8 88,57 88,44 C88,31 82.3,19.2 73.2,11.2 L73.2,11.2 C73.1,11.1 73,11 72.9,10.9 C65.2,4.1 55.1,0 44,0 C32.9,0 22.8,4.1 15.1,10.9 C15,11 14.9,11.1 14.8,11.2 L14.8,11.2 C5.7,19.2 0,31 0,44 C0,57 5.7,68.8 14.8,76.8 L14.8,76.8 Z M21.3,45.5 C21.4,53.9 22.7,61.6 24.9,68.1 C21.7,69.6 18.7,71.6 16,73.8 C8.3,66.7 3.4,56.7 3,45.5 L21.3,45.5 L21.3,45.5 Z M28.7,69.7 C33.1,68 37.7,67 42.5,66.8 L42.5,84.9 C37,84 32.1,78.2 28.7,69.7 L28.7,69.7 Z M45.5,84.9 L45.5,66.8 C50.3,67 54.9,68 59.3,69.7 C55.9,78.2 51,84 45.5,84.9 L45.5,84.9 Z M45.5,63.8 L45.5,45.5 L63.7,45.5 C63.6,53.3 62.3,60.7 60.2,66.9 C55.6,65 50.6,64 45.5,63.8 L45.5,63.8 Z M45.5,42.5 L45.5,24.2 C50.6,24 55.6,23 60.3,21.1 C62.4,27.3 63.6,34.6 63.8,42.5 L45.5,42.5 L45.5,42.5 Z M45.5,21.2 L45.5,3.1 C51,4 55.9,9.8 59.3,18.3 C54.9,20 50.3,21 45.5,21.2 L45.5,21.2 Z M42.5,3.1 L42.5,21.2 C37.7,21 33.1,20 28.7,18.3 C32.1,9.8 37,4 42.5,3.1 L42.5,3.1 Z M42.5,24.2 L42.5,42.5 L24.3,42.5 C24.4,34.7 25.7,27.3 27.8,21.1 C32.4,23 37.4,24 42.5,24.2 L42.5,24.2 Z M42.5,45.5 L42.5,63.8 C37.4,64 32.4,65 27.7,66.9 C25.6,60.7 24.4,53.4 24.2,45.5 L42.5,45.5 L42.5,45.5 Z M18.2,75.9 C20.6,74 23.2,72.3 25.9,71 C28.1,76.4 30.9,80.9 34.1,83.8 C28.2,82.3 22.8,79.6 18.2,75.9 L18.2,75.9 Z M62.1,71 C64.8,72.3 67.4,74 69.8,75.9 C65.2,79.6 59.8,82.4 53.9,83.8 C57.1,80.8 59.9,76.4 62.1,71 L62.1,71 Z M72,73.9 C69.2,71.6 66.3,69.7 63.1,68.2 C65.3,61.7 66.6,54 66.7,45.6 L85,45.6 C84.6,56.7 79.7,66.7 72,73.9 L72,73.9 Z M85,42.5 L66.7,42.5 C66.6,34.1 65.3,26.4 63.1,19.9 C66.3,18.4 69.3,16.4 72,14.2 C79.7,21.3 84.6,31.3 85,42.5 L85,42.5 Z M69.8,12.1 C67.4,14 64.8,15.7 62.1,17 C59.9,11.6 57.1,7.1 53.9,4.2 C59.8,5.7 65.2,8.4 69.8,12.1 L69.8,12.1 Z M25.9,17 C23.2,15.7 20.6,14 18.2,12.1 C22.8,8.4 28.2,5.6 34.1,4.2 C30.9,7.2 28.1,11.6 25.9,17 L25.9,17 Z M16,14.1 C18.8,16.4 21.7,18.3 24.9,19.8 C22.7,26.3 21.4,34 21.3,42.4 L3,42.4 C3.4,31.3 8.3,21.3 16,14.1 L16,14.1 Z" id="Shape" sketch:type="MSShapeGroup"></path>
        </g>
    </g>
</svg>